<?xml version="1.0" standalone="no"?>
<!DOCTYPE svg PUBLIC "-//W3C//DTD SVG 20010904//EN"
 "http://www.w3.org/TR/2001/REC-SVG-20010904/DTD/svg10.dtd">
<svg version="1.0" xmlns="http://www.w3.org/2000/svg"
 width="512.000000pt" height="512.000000pt" viewBox="0 0 512.000000 512.000000"
 preserveAspectRatio="xMidYMid meet">
<metadata>
Created by potrace 1.11, written by Peter Selinger 2001-2013
</metadata>
<g transform="translate(0.000000,512.000000) scale(0.100000,-0.100000)"
fill="#000000" stroke="none">
<path d="M0 2560 l0 -2560 2560 0 2560 0 0 2560 0 2560 -2560 0 -2560 0 0
-2560z m934 1736 c23 -9 37 -24 45 -46 15 -45 15 -465 0 -510 -16 -45 -66 -66
-113 -46 -51 21 -56 49 -56 301 0 249 6 280 54 301 38 16 31 16 70 0z m1256
-426 l0 -350 370 0 370 0 0 350 0 350 170 0 170 0 0 -870 0 -870 -170 0 -170
0 0 350 0 350 -370 0 -370 0 0 -350 0 -350 -170 0 -170 0 0 870 0 870 170 0
170 0 0 -350z m-833 -1737 c21 -21 85 -87 142 -148 l104 -110 141 148 c188
196 167 196 355 0 l141 -148 143 148 c188 195 166 195 354 0 l142 -148 141
148 c189 196 168 196 356 0 l141 -148 104 110 c168 178 176 185 213 185 45 0
86 -41 86 -86 0 -28 -13 -48 -82 -121 -185 -199 -267 -282 -288 -293 -43 -23
-71 -4 -215 145 l-140 144 -125 -135 c-133 -144 -166 -169 -209 -160 -16 4
-78 60 -164 149 l-137 142 -138 -142 c-85 -89 -147 -145 -163 -149 -43 -9 -76
16 -209 160 l-125 134 -140 -144 c-144 -147 -172 -167 -215 -144 -21 11 -103
94 -288 293 -94 100 -104 132 -56 181 40 39 84 35 131 -11z m612 -704 c57 -20
61 -42 61 -304 0 -261 -5 -284 -60 -304 -36 -12 -66 -3 -95 29 -19 21 -20 38
-23 261 -3 264 3 298 56 318 15 5 27 10 28 10 1 1 15 -4 33 -10z m816 -18 c50
-22 102 -74 126 -126 14 -31 19 -64 19 -150 0 -138 -9 -171 -65 -233 -53 -59
-109 -85 -185 -85 -97 0 -178 48 -224 133 -53 97 -47 289 12 375 29 42 116
101 161 108 41 7 112 -3 156 -22z m423 18 c58 -20 63 -49 60 -318 -3 -223 -4
-240 -23 -261 -44 -49 -112 -43 -140 11 -20 37 -22 483 -3 525 10 21 32 37 74
54 1 0 15 -5 32 -11z m-904 -465 c46 -47 26 -124 -39 -140 -83 -21 -139 79
-79 140 36 35 82 35 118 0z"/>
<path d="M2622 1237 c-19 -20 -22 -35 -22 -113 0 -82 2 -93 23 -112 29 -27 77
-28 108 -3 21 17 24 29 27 110 4 85 3 91 -22 115 -33 34 -84 35 -114 3z"/>
</g>
</svg>
